{
  "source": "C:\\Users\\Peter\\Desktop\\stuff\\MIUN\\quantitative_research\\video_compression\\videos\\BVI-HD\\BVI-HD_CDVL_videos\\ORIG\\KineticFastPainting_1920x1080_60fps.mp4",
  "output": "C:\\Users\\Peter\\Desktop\\stuff\\MIUN\\quantitative_research\\video_compression\\compressed_videos\\BVI-HD\\vp9\\4\\KineticFastPainting_1920x1080_60fps_vp9.webm",
  "codec": "vp9",
  "ok": "Input #0, mov,mp4,m4a,3gp,3g2,mj2, from 'C:\\Users\\Peter\\Desktop\\stuff\\MIUN\\quantitative_research\\video_compression\\videos\\BVI-HD\\BVI-HD_CDVL_videos\\ORIG\\KineticFastPainting_1920x1080_60fps.mp4':\n  Metadata:\n    major_brand     : isom\n    minor_version   : 512\n    compatible_brands: isomiso2avc1mp41\n    encoder         : Lavf54.28.101\n  Duration: 00:00:05.00, start: 0.000000, bitrate: 477980 kb/s\n  Stream #0:0[0x1](und): Video: h264 (High 4:4:4 Predictive) (avc1 / 0x31637661), yuv420p(progressive), 1920x1080, 477974 kb/s, 60 fps, 60 tbr, 60 tbn (default)\n    Metadata:\n      handler_name    : VideoHandler\n      vendor_id       : [0][0][0][0]\n[out#0/webm @ 00000193563a9100] Codec AVOption b:a (set bitrate (in bits/s)) has not been used for any stream. The most likely reason is either wrong type (e.g. a video option with no video streams) or that it is a private option of some decoder which was not actually used for any stream.\nStream mapping:\n  Stream #0:0 -> #0:0 (h264 (native) -> vp9 (libvpx-vp9))\nPress [q] to stop, [?] for help\n[libvpx-vp9 @ 0000019356e000c0] v1.15.2-100-g40561f514\nOutput #0, webm, to 'C:\\Users\\Peter\\Desktop\\stuff\\MIUN\\quantitative_research\\video_compression\\compressed_videos\\BVI-HD\\vp9\\4\\KineticFastPainting_1920x1080_60fps_vp9.webm':\n  Metadata:\n    major_brand     : isom\n    minor_version   : 512\n    compatible_brands: isomiso2avc1mp41\n    encoder         : Lavf62.3.100\n  Stream #0:0(und): Video: vp9, yuv420p(tv, progressive), 1920x1080, q=2-31, 4000 kb/s, 60 fps, 1k tbn (default)\n    Metadata:\n      encoder         : Lavc62.11.100 libvpx-vp9\n      handler_name    : VideoHandler\n      vendor_id       : [0][0][0][0]\n    Side data:\n      cpb: bitrate max/min/avg: 0/0/0 buffer size: 4000000 vbv_delay: N/A\nframe=    0 fps=0.0 q=0.0 size=       0KiB time=N/A bitrate=N/A speed=N/A elapsed=0:00:00.53    \nframe=    5 fps=4.4 q=60.0 size=       1KiB time=00:00:00.08 bitrate=  60.8kbits/s speed=0.0725x elapsed=0:00:01.14    \nframe=   10 fps=6.0 q=59.0 size=       1KiB time=00:00:00.16 bitrate=  30.4kbits/s speed=0.0998x elapsed=0:00:01.67    \nframe=   14 fps=6.4 q=58.0 size=       1KiB time=00:00:00.23 bitrate=  21.7kbits/s speed=0.106x elapsed=0:00:02.19    \nframe=   18 fps=6.6 q=57.0 size=       1KiB time=00:00:00.30 bitrate=  16.9kbits/s speed=0.111x elapsed=0:00:02.70    \nframe=   23 fps=7.1 q=58.0 size=       1KiB time=00:00:00.38 bitrate=  13.2kbits/s speed=0.118x elapsed=0:00:03.23    \nframe=   27 fps=7.1 q=57.0 size=       1KiB time=00:00:00.45 bitrate=  11.3kbits/s speed=0.119x elapsed=0:00:03.78    \nframe=   31 fps=7.2 q=57.0 size=       1KiB time=00:00:00.51 bitrate=   9.8kbits/s speed=0.12x elapsed=0:00:04.30    \nframe=   36 fps=7.5 q=57.0 size=       1KiB time=00:00:00.60 bitrate=   8.4kbits/s speed=0.124x elapsed=0:00:04.83    \nframe=   40 fps=7.4 q=56.0 size=       1KiB time=00:00:00.66 bitrate=   7.6kbits/s speed=0.124x elapsed=0:00:05.39    \nframe=   43 fps=7.3 q=45.0 size=       1KiB time=00:00:00.71 bitrate=   7.1kbits/s speed=0.121x elapsed=0:00:05.90    \nframe=   47 fps=7.3 q=57.0 size=       1KiB time=00:00:00.78 bitrate=   6.5kbits/s speed=0.122x elapsed=0:00:06.42    \nframe=   51 fps=7.4 q=57.0 size=       1KiB time=00:00:00.85 bitrate=   6.0kbits/s speed=0.123x elapsed=0:00:06.93    \nframe=   55 fps=7.4 q=45.0 size=       1KiB time=00:00:00.90 bitrate=   5.6kbits/s speed=0.121x elapsed=0:00:07.44    \nframe=   59 fps=7.4 q=57.0 size=       1KiB time=00:00:00.98 bitrate=   5.1kbits/s speed=0.123x elapsed=0:00:07.98    \nframe=   63 fps=7.4 q=56.0 size=       1KiB time=00:00:01.05 bitrate=   4.8kbits/s speed=0.123x elapsed=0:00:08.50    \nframe=   67 fps=7.4 q=44.0 size=       1KiB time=00:00:01.11 bitrate=   4.5kbits/s speed=0.124x elapsed=0:00:09.02    \nframe=   71 fps=7.4 q=56.0 size=       1KiB time=00:00:01.18 bitrate=   4.3kbits/s speed=0.124x elapsed=0:00:09.53    \nframe=   75 fps=7.5 q=57.0 size=       1KiB time=00:00:01.25 bitrate=   4.1kbits/s speed=0.124x elapsed=0:00:10.06    \nframe=   78 fps=7.4 q=57.0 size=       1KiB time=00:00:01.30 bitrate=   3.9kbits/s speed=0.123x elapsed=0:00:10.56    \nframe=   83 fps=7.5 q=57.0 size=       1KiB time=00:00:01.38 bitrate=   3.7kbits/s speed=0.125x elapsed=0:00:11.08    \nframe=   87 fps=7.5 q=56.0 size=       1KiB time=00:00:01.45 bitrate=   3.5kbits/s speed=0.125x elapsed=0:00:11.62    \nframe=   90 fps=7.4 q=57.0 size=       1KiB time=00:00:01.50 bitrate=   3.4kbits/s speed=0.123x elapsed=0:00:12.15    \nframe=   95 fps=7.5 q=57.0 size=       1KiB time=00:00:01.58 bitrate=   3.2kbits/s speed=0.125x elapsed=0:00:12.68    \nframe=   99 fps=7.5 q=57.0 size=       1KiB time=00:00:01.65 bitrate=   3.1kbits/s speed=0.125x elapsed=0:00:13.22    \nframe=  102 fps=7.4 q=57.0 size=       1KiB time=00:00:01.70 bitrate=   3.0kbits/s speed=0.123x elapsed=0:00:13.76    \nframe=  107 fps=7.5 q=56.0 size=       1KiB time=00:00:01.78 bitrate=   2.8kbits/s speed=0.125x elapsed=0:00:14.29    \nframe=  111 fps=7.5 q=56.0 size=       1KiB time=00:00:01.85 bitrate=   2.7kbits/s speed=0.125x elapsed=0:00:14.83    \nframe=  115 fps=7.5 q=43.0 size=       1KiB time=00:00:01.91 bitrate=   2.6kbits/s speed=0.125x elapsed=0:00:15.37    \nframe=  119 fps=7.5 q=55.0 size=       1KiB time=00:00:01.98 bitrate=   2.6kbits/s speed=0.125x elapsed=0:00:15.90    \nframe=  123 fps=7.5 q=53.0 size=       1KiB time=00:00:02.05 bitrate=   2.5kbits/s speed=0.125x elapsed=0:00:16.42    \nframe=  127 fps=7.5 q=53.0 size=       1KiB time=00:00:02.11 bitrate=   2.4kbits/s speed=0.125x elapsed=0:00:16.94    \nframe=  132 fps=7.6 q=55.0 size=    1024KiB time=00:00:02.20 bitrate=3813.0kbits/s speed=0.126x elapsed=0:00:17.45    \nframe=  136 fps=7.6 q=57.0 size=    1024KiB time=00:00:02.26 bitrate=3700.9kbits/s speed=0.126x elapsed=0:00:17.98    \nframe=  140 fps=7.6 q=58.0 size=    1024KiB time=00:00:02.33 bitrate=3595.1kbits/s speed=0.126x elapsed=0:00:18.52    \nframe=  144 fps=7.6 q=57.0 size=    1024KiB time=00:00:02.40 bitrate=3495.3kbits/s speed=0.126x elapsed=0:00:19.05    \nframe=  147 fps=7.5 q=43.0 size=    1024KiB time=00:00:02.45 bitrate=3423.9kbits/s speed=0.125x elapsed=0:00:19.58    \nframe=  151 fps=7.5 q=57.0 size=    1024KiB time=00:00:02.51 bitrate=3333.2kbits/s speed=0.125x elapsed=0:00:20.09    \nframe=  155 fps=7.5 q=57.0 size=    1024KiB time=00:00:02.58 bitrate=3247.2kbits/s speed=0.125x elapsed=0:00:20.61    \nframe=  159 fps=7.5 q=44.0 size=    1024KiB time=00:00:02.65 bitrate=3165.5kbits/s speed=0.125x elapsed=0:00:21.16    \nframe=  163 fps=7.5 q=56.0 size=    1024KiB time=00:00:02.71 bitrate=3087.8kbits/s speed=0.125x elapsed=0:00:21.68    \nframe=  167 fps=7.5 q=56.0 size=    1024KiB time=00:00:02.78 bitrate=3013.9kbits/s speed=0.125x elapsed=0:00:22.19    \nframe=  171 fps=7.5 q=43.0 size=    1024KiB time=00:00:02.85 bitrate=2943.4kbits/s speed=0.125x elapsed=0:00:22.72    \nframe=  176 fps=7.6 q=57.0 size=    1024KiB time=00:00:02.93 bitrate=2859.8kbits/s speed=0.126x elapsed=0:00:23.23    \nframe=  180 fps=7.6 q=56.0 size=    1024KiB time=00:00:03.00 bitrate=2796.2kbits/s speed=0.126x elapsed=0:00:23.74    \nframe=  184 fps=7.6 q=56.0 size=    1024KiB time=00:00:03.06 bitrate=2735.4kbits/s speed=0.126x elapsed=0:00:24.28    \nframe=  188 fps=7.6 q=56.0 size=    1024KiB time=00:00:03.13 bitrate=2677.2kbits/s speed=0.126x elapsed=0:00:24.81    \nframe=  193 fps=7.6 q=55.0 size=    1024KiB time=00:00:03.21 bitrate=2607.9kbits/s speed=0.127x elapsed=0:00:25.35    \nframe=  196 fps=7.6 q=57.0 size=    1024KiB time=00:00:03.26 bitrate=2567.9kbits/s speed=0.126x elapsed=0:00:25.86    \nframe=  200 fps=7.6 q=57.0 size=    1024KiB time=00:00:03.33 bitrate=2516.6kbits/s speed=0.126x elapsed=0:00:26.38    \nframe=  204 fps=7.6 q=57.0 size=    1024KiB time=00:00:03.40 bitrate=2467.2kbits/s speed=0.126x elapsed=0:00:26.91    \nframe=  208 fps=7.6 q=57.0 size=    1024KiB time=00:00:03.46 bitrate=2419.8kbits/s speed=0.126x elapsed=0:00:27.44    \nframe=  212 fps=7.6 q=56.0 size=    1024KiB time=00:00:03.53 bitrate=2374.1kbits/s speed=0.126x elapsed=0:00:27.98    \nframe=  217 fps=7.6 q=55.0 size=    1024KiB time=00:00:03.61 bitrate=2319.4kbits/s speed=0.127x elapsed=0:00:28.52    \nframe=  220 fps=7.6 q=55.0 size=    1024KiB time=00:00:03.66 bitrate=2287.8kbits/s speed=0.126x elapsed=0:00:29.05    \nframe=  224 fps=7.6 q=55.0 size=    1024KiB time=00:00:03.73 bitrate=2246.9kbits/s speed=0.126x elapsed=0:00:29.58    \nframe=  227 fps=7.5 q=55.0 size=    1024KiB time=00:00:03.78 bitrate=2217.3kbits/s speed=0.125x elapsed=0:00:30.14    \nframe=  230 fps=7.5 q=56.0 size=    1024KiB time=00:00:03.83 bitrate=2188.3kbits/s speed=0.125x elapsed=0:00:30.66    \nframe=  231 fps=7.4 q=42.0 size=    1024KiB time=00:00:03.85 bitrate=2178.9kbits/s speed=0.123x elapsed=0:00:31.33    \nframe=  234 fps=7.3 q=56.0 size=    1024KiB time=00:00:03.90 bitrate=2150.9kbits/s speed=0.122x elapsed=0:00:31.89    \nframe=  236 fps=7.3 q=56.0 size=    1024KiB time=00:00:03.93 bitrate=2132.7kbits/s speed=0.121x elapsed=0:00:32.51    \nframe=  238 fps=7.2 q=57.0 size=    1024KiB time=00:00:03.96 bitrate=2114.8kbits/s speed=0.12x elapsed=0:00:33.09    \nframe=  241 fps=7.2 q=56.0 size=    1024KiB time=00:00:04.01 bitrate=2088.4kbits/s speed=0.119x elapsed=0:00:33.67    \nframe=  243 fps=7.1 q=42.0 size=    1024KiB time=00:00:04.05 bitrate=2071.3kbits/s speed=0.118x elapsed=0:00:34.22    \nframe=  246 fps=7.1 q=56.0 size=    1024KiB time=00:00:04.10 bitrate=2046.0kbits/s speed=0.118x elapsed=0:00:34.78    \nframe=  248 fps=7.0 q=57.0 size=    1024KiB time=00:00:04.13 bitrate=2029.5kbits/s speed=0.117x elapsed=0:00:35.30    \nframe=  252 fps=7.0 q=55.0 size=    1024KiB time=00:00:04.20 bitrate=1997.3kbits/s speed=0.117x elapsed=0:00:35.84    \nframe=  255 fps=7.0 q=56.0 size=    1024KiB time=00:00:04.25 bitrate=1973.8kbits/s speed=0.117x elapsed=0:00:36.40    \nframe=  257 fps=7.0 q=42.0 size=    1024KiB time=00:00:04.28 bitrate=1958.4kbits/s speed=0.116x elapsed=0:00:36.95    \nframe=  260 fps=6.9 q=57.0 size=    2048KiB time=00:00:04.33 bitrate=3871.7kbits/s speed=0.116x elapsed=0:00:37.47    \nframe=  262 fps=6.9 q=57.0 size=    2048KiB time=00:00:04.36 bitrate=3842.1kbits/s speed=0.115x elapsed=0:00:38.01    \nframe=  266 fps=6.9 q=57.0 size=    2048KiB time=00:00:04.43 bitrate=3784.3kbits/s speed=0.115x elapsed=0:00:38.56    \nframe=  269 fps=6.9 q=43.0 size=    2048KiB time=00:00:04.48 bitrate=3742.1kbits/s speed=0.115x elapsed=0:00:39.11    \nframe=  272 fps=6.9 q=56.0 size=    2048KiB time=00:00:04.53 bitrate=3700.9kbits/s speed=0.114x elapsed=0:00:39.64    \nframe=  274 fps=6.8 q=57.0 size=    2048KiB time=00:00:04.56 bitrate=3673.8kbits/s speed=0.114x elapsed=0:00:40.19    \nframe=  276 fps=6.8 q=57.0 size=    2048KiB time=00:00:04.60 bitrate=3647.2kbits/s speed=0.113x elapsed=0:00:40.74    \nframe=  276 fps=6.7 q=57.0 size=    2048KiB time=00:00:04.60 bitrate=3647.2kbits/s speed=0.111x elapsed=0:00:41.29    \nframe=  276 fps=6.6 q=57.0 size=    2048KiB time=00:00:04.60 bitrate=3647.2kbits/s speed=0.11x elapsed=0:00:41.84    \nframe=  276 fps=6.5 q=57.0 size=    2048KiB time=00:00:04.60 bitrate=3647.2kbits/s speed=0.108x elapsed=0:00:42.40    \nframe=  276 fps=6.4 q=57.0 size=    2048KiB time=00:00:04.60 bitrate=3647.2kbits/s speed=0.107x elapsed=0:00:42.95    \nframe=  276 fps=6.3 q=57.0 size=    2048KiB time=00:00:04.60 bitrate=3647.2kbits/s speed=0.106x elapsed=0:00:43.49    \nframe=  276 fps=6.3 q=57.0 size=    2048KiB time=00:00:04.60 bitrate=3647.2kbits/s speed=0.105x elapsed=0:00:44.00    \nframe=  276 fps=6.2 q=57.0 size=    2048KiB time=00:00:04.60 bitrate=3647.2kbits/s speed=0.103x elapsed=0:00:44.52    \n[out#0/webm @ 00000193563a9100] video:2513KiB audio:0KiB subtitle:0KiB other streams:0KiB global headers:0KiB muxing overhead: 0.111609%\nframe=  300 fps=6.7 q=57.0 Lsize=    2516KiB time=00:00:05.00 bitrate=4121.8kbits/s speed=0.111x elapsed=0:00:45.04    \n",
  "seconds": 45.693867683410645,
  "probe_out": {}
}